<svg width="444" height="270" viewBox="0 0 444 270" fill="none" xmlns="http://www.w3.org/2000/svg">
<circle cx="222" cy="27" r="27" fill="#D9D9D9"/>
<circle cx="330" cy="135" r="27" fill="#D9D9D9"/>
<circle cx="114" cy="135" r="27" fill="#D9D9D9"/>
<circle cx="75" cy="27" r="27" fill="#D9D9D9"/>
<circle cx="27" cy="27" r="27" transform="matrix(1 0 0 -1 48 270)" fill="#D9D9D9"/>
<circle cx="27" cy="92" r="27" fill="#D9D9D9"/>
<circle cx="27" cy="27" r="27" transform="matrix(1 0 0 -1 0 205)" fill="#D9D9D9"/>
<circle cx="27" cy="27" r="27" transform="matrix(-1 0 0 1 396 0)" fill="#D9D9D9"/>
<circle cx="369" cy="243" r="27" transform="rotate(180 369 243)" fill="#D9D9D9"/>
<circle cx="27" cy="27" r="27" transform="matrix(-1 0 0 1 444 65)" fill="#D9D9D9"/>
<circle cx="417" cy="178" r="27" transform="rotate(180 417 178)" fill="#D9D9D9"/>
<circle cx="222" cy="135" r="27" fill="#D9D9D9"/>
<circle cx="222" cy="243" r="27" fill="#D9D9D9"/>
</svg>
